<svg xmlns="http://www.w3.org/2000/svg" viewBox="0 0 900 500" width="100%" height="100%">
  <defs>
    <linearGradient id="bgGrad_volvo-ips-drive-maintenance" x1="0%" y1="0%" x2="100%" y2="100%">
      <stop offset="0%" stop-color="#04131f"/>
      <stop offset="60%" stop-color="#0a253a"/>
      <stop offset="100%" stop-color="#073a56"/>
    </linearGradient>
    <linearGradient id="cardGrad_volvo-ips-drive-maintenance" x1="0%" y1="0%" x2="0%" y2="100%">
      <stop offset="0%" stop-color="#ffffff" stop-opacity="0.10"/>
      <stop offset="100%" stop-color="#ffffff" stop-opacity="0.02"/>
    </linearGradient>
    <linearGradient id="accentGrad_volvo-ips-drive-maintenance" x1="0%" y1="0%" x2="100%" y2="0%">
      <stop offset="0%" stop-color="#06b6d4"/>
      <stop offset="100%" stop-color="#38bdf8"/>
    </linearGradient>
    <filter id="shadow_volvo-ips-drive-maintenance" x="-10%" y="-10%" width="120%" height="120%">
      <feDropShadow dx="0" dy="8" stdDeviation="6" flood-color="#000000" flood-opacity="0.5"/>
    </filter>
  </defs>

  <!-- Background Canvas -->
  <rect width="900" height="500" rx="16" fill="url(#bgGrad_volvo-ips-drive-maintenance)"/>

  <!-- Technical Grid Background -->
  <g stroke="#ffffff" stroke-opacity="0.03" stroke-width="1">
    <path d="M 0 50 L 900 50 M 0 100 L 900 100 M 0 150 L 900 150 M 0 200 L 900 200 M 0 250 L 900 250 M 0 300 L 900 300 M 0 350 L 900 350 M 0 400 L 900 400 M 0 450 L 900 450"/>
    <path d="M 100 0 L 100 500 M 200 0 L 200 500 M 300 0 L 300 500 M 400 0 L 400 500 M 500 0 L 500 500 M 600 0 L 600 500 M 700 0 L 700 500 M 800 0 L 800 500"/>
  </g>

  <!-- Header Section -->
  <rect x="35" y="24" width="280" height="28" rx="14" fill="#06b6d4" fill-opacity="0.15" stroke="#06b6d4" stroke-opacity="0.4" stroke-width="1"/>
  <text x="50" y="43" fill="#06b6d4" font-family="-apple-system, BlinkMacSystemFont, Segoe UI, Roboto, sans-serif" font-size="11" font-weight="bold" letter-spacing="1.2">VOLVO PENTA · IPS POD DRIVE PROPULSION</text>

  <text x="35" y="82" fill="#ffffff" font-family="-apple-system, BlinkMacSystemFont, Segoe UI, Roboto, sans-serif" font-size="20" font-weight="800">Volvo Penta IPS Pod Drive Hydrodynamics & Gear Lube Loop</text>
  <text x="35" y="105" fill="#94a3b8" font-family="-apple-system, BlinkMacSystemFont, Segoe UI, Roboto, sans-serif" font-size="12">Upper Gearbox, Forward-Facing Dual Props, Duo-Cone Seals & SUS Steering</text>

  <!-- Main System Visual Container -->
  <rect x="35" y="125" width="830" height="340" rx="12" fill="url(#cardGrad_volvo-ips-drive-maintenance)" stroke="#ffffff" stroke-opacity="0.12" stroke-width="1" filter="url(#shadow_volvo-ips-drive-maintenance)"/>

    <!-- Node #1: Upper Gearbox & Clutch -->
    <g transform="translate(55.0, 150)">
      <rect width="182.5" height="290" rx="10" fill="#061928" stroke="#0284c7" stroke-width="1.5" stroke-opacity="0.8"/>
      
      <!-- Top Accent Bar -->
      <rect x="0" y="0" width="182.5" height="4" rx="2" fill="#0284c7"/>
      
      <!-- Icon Circle -->
      <circle cx="91.25" cy="38" r="22" fill="#0284c7" fill-opacity="0.15" stroke="#0284c7" stroke-opacity="0.5"/>
      <text x="91.25" y="45" font-family="sans-serif" font-size="18" text-anchor="middle">⚙️</text>
      
      <!-- Title -->
      <text x="91.25" y="82" fill="#ffffff" font-family="-apple-system, BlinkMacSystemFont, Segoe UI, Roboto, sans-serif" font-size="13" font-weight="bold" text-anchor="middle">Upper Gearbox & Clutch</text>

      <!-- Metric Badge -->
      <rect x="15" y="96" width="152.5" height="24" rx="12" fill="#0284c7" fill-opacity="0.18"/>
      <text x="91.25" y="112" fill="#0284c7" font-family="monospace" font-size="11" font-weight="bold" text-anchor="middle">75W-90 / 75W-140 Synthetic</text>

      <circle cx="20" cy="136" r="2.5" fill="#0284c7"/>
      <text x="30" y="140" fill="#cbd5e1" font-family="-apple-system, BlinkMacSystemFont, Segoe UI, Roboto, sans-serif" font-size="10.5">Hydraulic Multi-Plate Clutch</text>

      <circle cx="20" cy="162" r="2.5" fill="#0284c7"/>
      <text x="30" y="166" fill="#cbd5e1" font-family="-apple-system, BlinkMacSystemFont, Segoe UI, Roboto, sans-serif" font-size="10.5">System Pressure: 18 - 22 Bar</text>

      <circle cx="20" cy="188" r="2.5" fill="#0284c7"/>
      <text x="30" y="192" fill="#cbd5e1" font-family="-apple-system, BlinkMacSystemFont, Segoe UI, Roboto, sans-serif" font-size="10.5">Dedicated Oil Filter & Cooler</text>

      <circle cx="20" cy="214" r="2.5" fill="#0284c7"/>
      <text x="30" y="218" fill="#cbd5e1" font-family="-apple-system, BlinkMacSystemFont, Segoe UI, Roboto, sans-serif" font-size="10.5">Proportional Shift Solenoids</text>
    </g>
    <!-- Connector Arrow 1 -> 2 -->
    <path d="M 239.5 240 L 255.5 240" stroke="#06b6d4" stroke-width="2.5" stroke-dasharray="4,2"/>
    <polygon points="257.5,240 251.5,236 251.5,244" fill="#06b6d4"/>

    <!-- Node #2: SUS Steering Actuator -->
    <g transform="translate(257.5, 150)">
      <rect width="182.5" height="290" rx="10" fill="#061928" stroke="#06b6d4" stroke-width="1.5" stroke-opacity="0.8"/>
      
      <!-- Top Accent Bar -->
      <rect x="0" y="0" width="182.5" height="4" rx="2" fill="#06b6d4"/>
      
      <!-- Icon Circle -->
      <circle cx="91.25" cy="38" r="22" fill="#06b6d4" fill-opacity="0.15" stroke="#06b6d4" stroke-opacity="0.5"/>
      <text x="91.25" y="45" font-family="sans-serif" font-size="18" text-anchor="middle">🔄</text>
      
      <!-- Title -->
      <text x="91.25" y="82" fill="#ffffff" font-family="-apple-system, BlinkMacSystemFont, Segoe UI, Roboto, sans-serif" font-size="13" font-weight="bold" text-anchor="middle">SUS Steering Actuator</text>

      <!-- Metric Badge -->
      <rect x="15" y="96" width="152.5" height="24" rx="12" fill="#06b6d4" fill-opacity="0.18"/>
      <text x="91.25" y="112" fill="#06b6d4" font-family="monospace" font-size="11" font-weight="bold" text-anchor="middle">360° Precision Angle</text>

      <circle cx="20" cy="136" r="2.5" fill="#06b6d4"/>
      <text x="30" y="140" fill="#cbd5e1" font-family="-apple-system, BlinkMacSystemFont, Segoe UI, Roboto, sans-serif" font-size="10.5">Brushless Servo Drive Motor</text>

      <circle cx="20" cy="162" r="2.5" fill="#06b6d4"/>
      <text x="30" y="166" fill="#cbd5e1" font-family="-apple-system, BlinkMacSystemFont, Segoe UI, Roboto, sans-serif" font-size="10.5">SUS Angle Resolver Sensor</text>

      <circle cx="20" cy="188" r="2.5" fill="#06b6d4"/>
      <text x="30" y="192" fill="#cbd5e1" font-family="-apple-system, BlinkMacSystemFont, Segoe UI, Roboto, sans-serif" font-size="10.5">Joystick Dynamic Positioning</text>

      <circle cx="20" cy="214" r="2.5" fill="#06b6d4"/>
      <text x="30" y="218" fill="#cbd5e1" font-family="-apple-system, BlinkMacSystemFont, Segoe UI, Roboto, sans-serif" font-size="10.5">Torque Shear Collar Protection</text>
    </g>
    <!-- Connector Arrow 2 -> 3 -->
    <path d="M 442.0 240 L 458.0 240" stroke="#06b6d4" stroke-width="2.5" stroke-dasharray="4,2"/>
    <polygon points="460.0,240 454.0,236 454.0,244" fill="#06b6d4"/>

    <!-- Node #3: Lower Pod & Dual Seals -->
    <g transform="translate(460.0, 150)">
      <rect width="182.5" height="290" rx="10" fill="#061928" stroke="#10b981" stroke-width="1.5" stroke-opacity="0.8"/>
      
      <!-- Top Accent Bar -->
      <rect x="0" y="0" width="182.5" height="4" rx="2" fill="#10b981"/>
      
      <!-- Icon Circle -->
      <circle cx="91.25" cy="38" r="22" fill="#10b981" fill-opacity="0.15" stroke="#10b981" stroke-opacity="0.5"/>
      <text x="91.25" y="45" font-family="sans-serif" font-size="18" text-anchor="middle">🛡️</text>
      
      <!-- Title -->
      <text x="91.25" y="82" fill="#ffffff" font-family="-apple-system, BlinkMacSystemFont, Segoe UI, Roboto, sans-serif" font-size="13" font-weight="bold" text-anchor="middle">Lower Pod & Dual Seals</text>

      <!-- Metric Badge -->
      <rect x="15" y="96" width="152.5" height="24" rx="12" fill="#10b981" fill-opacity="0.18"/>
      <text x="91.25" y="112" fill="#10b981" font-family="monospace" font-size="11" font-weight="bold" text-anchor="middle">Vacuum & Pressure Decay</text>

      <circle cx="20" cy="136" r="2.5" fill="#10b981"/>
      <text x="30" y="140" fill="#cbd5e1" font-family="-apple-system, BlinkMacSystemFont, Segoe UI, Roboto, sans-serif" font-size="10.5">Counter-Rotating Prop Shafts</text>

      <circle cx="20" cy="162" r="2.5" fill="#10b981"/>
      <text x="30" y="166" fill="#cbd5e1" font-family="-apple-system, BlinkMacSystemFont, Segoe UI, Roboto, sans-serif" font-size="10.5">Radial Dual Lip / Duo-Cone Seals</text>

      <circle cx="20" cy="188" r="2.5" fill="#10b981"/>
      <text x="30" y="192" fill="#cbd5e1" font-family="-apple-system, BlinkMacSystemFont, Segoe UI, Roboto, sans-serif" font-size="10.5">Water-in-Lube Optical Sensor</text>

      <circle cx="20" cy="214" r="2.5" fill="#10b981"/>
      <text x="30" y="218" fill="#cbd5e1" font-family="-apple-system, BlinkMacSystemFont, Segoe UI, Roboto, sans-serif" font-size="10.5">Hull Impact Breakaway Safety</text>
    </g>
    <!-- Connector Arrow 3 -> 4 -->
    <path d="M 644.5 240 L 660.5 240" stroke="#06b6d4" stroke-width="2.5" stroke-dasharray="4,2"/>
    <polygon points="662.5,240 656.5,236 656.5,244" fill="#06b6d4"/>

    <!-- Node #4: Cathodic & ACP Protection -->
    <g transform="translate(662.5, 150)">
      <rect width="182.5" height="290" rx="10" fill="#061928" stroke="#f59e0b" stroke-width="1.5" stroke-opacity="0.8"/>
      
      <!-- Top Accent Bar -->
      <rect x="0" y="0" width="182.5" height="4" rx="2" fill="#f59e0b"/>
      
      <!-- Icon Circle -->
      <circle cx="91.25" cy="38" r="22" fill="#f59e0b" fill-opacity="0.15" stroke="#f59e0b" stroke-opacity="0.5"/>
      <text x="91.25" y="45" font-family="sans-serif" font-size="18" text-anchor="middle">⚡</text>
      
      <!-- Title -->
      <text x="91.25" y="82" fill="#ffffff" font-family="-apple-system, BlinkMacSystemFont, Segoe UI, Roboto, sans-serif" font-size="13" font-weight="bold" text-anchor="middle">Cathodic & ACP Protection</text>

      <!-- Metric Badge -->
      <rect x="15" y="96" width="152.5" height="24" rx="12" fill="#f59e0b" fill-opacity="0.18"/>
      <text x="91.25" y="112" fill="#f59e0b" font-family="monospace" font-size="11" font-weight="bold" text-anchor="middle">Active ACP / Zinc-Alum</text>

      <circle cx="20" cy="136" r="2.5" fill="#f59e0b"/>
      <text x="30" y="140" fill="#cbd5e1" font-family="-apple-system, BlinkMacSystemFont, Segoe UI, Roboto, sans-serif" font-size="10.5">IPS Pod Ring Anodes</text>

      <circle cx="20" cy="162" r="2.5" fill="#f59e0b"/>
      <text x="30" y="166" fill="#cbd5e1" font-family="-apple-system, BlinkMacSystemFont, Segoe UI, Roboto, sans-serif" font-size="10.5">Exhaust Flange Anode</text>

      <circle cx="20" cy="188" r="2.5" fill="#f59e0b"/>
      <text x="30" y="192" fill="#cbd5e1" font-family="-apple-system, BlinkMacSystemFont, Segoe UI, Roboto, sans-serif" font-size="10.5">Active Corrosion Protection (ACP)</text>

      <circle cx="20" cy="214" r="2.5" fill="#f59e0b"/>
      <text x="30" y="218" fill="#cbd5e1" font-family="-apple-system, BlinkMacSystemFont, Segoe UI, Roboto, sans-serif" font-size="10.5">Grounded Bonding Isolators</text>
    </g>
  <!-- Footer Reference -->
  <text x="45" y="445" fill="#64748b" font-family="-apple-system, BlinkMacSystemFont, Segoe UI, Roboto, sans-serif" font-size="10.5">DM MARİN YAT BAKIM &amp; MÜHENDİSLİK HİZMETLERİ · ISO 8846 / ABYC UYUMLU TEKNİK ŞEMA</text>
</svg>